<svg id="Layer_1" data-name="Layer 1" xmlns="http://www.w3.org/2000/svg" viewBox="0 0 113.79 145.95"><defs><style>.cls-1{fill:#ff7058;}.cls-2{fill:#fff;}.cls-3{fill:#0a0a0a;opacity:0.1;isolation:isolate;}.cls-4{fill:#40596b;}.cls-5{fill:#84dbff;}.cls-6{fill:#55bfeb;}</style></defs><title>darts</title><circle class="cls-1" cx="39.34" cy="106.61" r="39.34"/><circle class="cls-2" cx="39.34" cy="106.61" r="30.72"/><circle class="cls-1" cx="39.34" cy="106.61" r="23.29"/><circle class="cls-2" cx="39.34" cy="106.61" r="14.78"/><circle class="cls-1" cx="39.34" cy="106.61" r="7.87"/><g id="arrow"><path class="cls-3" d="M138.06,79.13l-18.4-6.94-6.58,5L66.4,59.55a2.74,2.74,0,1,0-2,5.12h0l46.62,17.65,1.65,8.27,18.43,6.94-2.25-11.36Z" transform="translate(-26.23 44.2)"/><path class="cls-4" d="M63.77,59.91l39.39-31.8a2.76,2.76,0,0,1,3.86.41h0a2.76,2.76,0,0,1-.41,3.86L67.22,64.18a2.76,2.76,0,0,1-3.86-.41h0A2.75,2.75,0,0,1,63.77,59.91Z" transform="translate(-26.23 44.2)"/><polygon class="cls-5" points="92.09 63.68 76.8 76.06 75.37 64.56 90.66 52.18 92.09 63.68"/><polygon class="cls-6" points="92.09 63.68 76.8 76.06 87.74 79.85 103.03 67.47 92.09 63.68"/><path class="cls-5" d="M139.46-43.08a.56.56,0,0,0,.56-.56.56.56,0,0,0-.56-.56.57.57,0,0,0-.57.56A.57.57,0,0,0,139.46-43.08Z" transform="translate(-26.23 44.2)"/></g></svg>